<?xml version="1.0" encoding="UTF-8" standalone="no"?>
<!-- Created with Inkscape (http://www.inkscape.org/) -->

<svg
   xmlns:dc="http://purl.org/dc/elements/1.1/"
   xmlns:cc="http://creativecommons.org/ns#"
   xmlns:rdf="http://www.w3.org/1999/02/22-rdf-syntax-ns#"
   xmlns:svg="http://www.w3.org/2000/svg"
   xmlns="http://www.w3.org/2000/svg"
   xmlns:sodipodi="http://sodipodi.sourceforge.net/DTD/sodipodi-0.dtd"
   xmlns:inkscape="http://www.inkscape.org/namespaces/inkscape"
   width="16px"
   height="16px"
   id="svg3105"
   version="1.1"
   inkscape:version="0.48.4 r9939"
   sodipodi:docname="Neues Dokument 3">
  <defs
     id="defs3107" />
  <sodipodi:namedview
     id="base"
     pagecolor="#ffffff"
     bordercolor="#666666"
     borderopacity="1.0"
     inkscape:pageopacity="0.0"
     inkscape:pageshadow="2"
     inkscape:zoom="22.197802"
     inkscape:cx="8"
     inkscape:cy="8"
     inkscape:current-layer="layer1"
     showgrid="true"
     inkscape:grid-bbox="true"
     inkscape:document-units="px"
     inkscape:window-width="1280"
     inkscape:window-height="659"
     inkscape:window-x="-8"
     inkscape:window-y="-8"
     inkscape:window-maximized="1" />
  <metadata
     id="metadata3110">
    <rdf:RDF>
      <cc:Work
         rdf:about="">
        <dc:format>image/svg+xml</dc:format>
        <dc:type
           rdf:resource="http://purl.org/dc/dcmitype/StillImage" />
        <dc:title></dc:title>
      </cc:Work>
    </rdf:RDF>
  </metadata>
  <g
     id="layer1"
     inkscape:label="Layer 1"
     inkscape:groupmode="layer">
    <g
       id="g3956"
       transform="matrix(0.04407421,0,0,0.03695952,-8.0076394,-4.6051008)">
      <title
         id="title3958">Layer 1</title>
      <g
         id="svg_1">
        <path
           d="m 369.672,209 c 16.5163,1.33758 30.8227,-10.9333 32.1602,-27.3915 1.27945,-16.4581 -10.9915,-30.7645 -27.5078,-32.1603 -16.3418,-1.22127 -30.7645,11.0496 -31.9858,27.5078 -1.39575,16.3418 10.8752,30.7645 27.3333,32.044"
           id="path4536"
           inkscape:connector-curvature="0"
           style="fill:#000000;fill-rule:nonzero" />
        <path
           d="m 344.374,221.271 c 5.87375,-4.12907 13.0269,-6.8624 20.9943,-6.16454 10.2355,0.81418 18.6099,7.1532 23.7277,14.8879 l 30.1248,59.7262 41.1163,28.322 c 3.48935,2.6752 5.69928,7.03687 5.23404,11.8057 -0.58157,7.38583 -7.0369,12.9106 -14.4227,12.2709 -2.2681,-0.11633 -4.12906,-1.04681 -6.16452,-1.97732 l -44.8383,-30.8808 c -1.39572,-1.10495 -2.5007,-2.5007 -3.43118,-3.95459 l -11.2241,-22.3901 -13.5504,59.5518 52.9801,62.5758 c 1.22128,1.91916 2.03546,4.18722 2.50073,6.45532 l 14.3064,75.5446 c -0.11633,1.68652 0.1163,2.73334 0,4.07092 -0.81418,11.2823 -10.5844,19.4241 -21.6922,18.6099 -9.2468,-0.75604 -16.051,-7.5603 -18.2028,-15.9929 l -13.4922,-70.7758 -43.0936,-47.1064 -9.9447,45.8851 c -0.34891,2.15176 -3.19855,6.68793 -4.01276,8.49078 l -41.3489,69.6709 c -4.07092,6.33899 -10.9915,10.4099 -18.8425,9.7702 -11.2241,-0.81418 -19.5404,-10.5844 -18.6099,-21.7503 0.23262,-3.14044 1.57022,-6.45532 2.73334,-8.72339 l 38.3829,-64.3787 32.044,-141.901 -20.9362,16.9234 -11.1078,50.5375 c -1.51205,6.51346 -7.3858,11.8057 -14.3064,11.2823 -7.50211,-0.58157 -12.9688,-7.03687 -12.3872,-14.539 0,-0.58154 0.1163,-1.16312 0.2326,-1.86099 l 13.1433,-58.912 c 0.81418,-2.5007 2.15179,-4.7688 4.12909,-6.51346 l 59.9588,-48.5603 z"
           id="path4538"
           inkscape:connector-curvature="0"
           style="fill:#000000;fill-rule:nonzero" />
      </g>
    </g>
  </g>
</svg>
