<?xml version="1.0" encoding="UTF-8" standalone="no"?>
<!-- Created with Inkscape (http://www.inkscape.org/) -->

<svg
   xmlns:dc="http://purl.org/dc/elements/1.1/"
   xmlns:cc="http://creativecommons.org/ns#"
   xmlns:rdf="http://www.w3.org/1999/02/22-rdf-syntax-ns#"
   xmlns:svg="http://www.w3.org/2000/svg"
   xmlns="http://www.w3.org/2000/svg"
   xmlns:sodipodi="http://sodipodi.sourceforge.net/DTD/sodipodi-0.dtd"
   xmlns:inkscape="http://www.inkscape.org/namespaces/inkscape"
   width="16px"
   height="16px"
   id="svg3105"
   version="1.1"
   inkscape:version="0.48.4 r9939"
   sodipodi:docname="Move.svg">
  <defs
     id="defs3107" />
  <sodipodi:namedview
     id="base"
     pagecolor="#ffffff"
     bordercolor="#666666"
     borderopacity="1.0"
     inkscape:pageopacity="0.0"
     inkscape:pageshadow="2"
     inkscape:zoom="22.197802"
     inkscape:cx="8"
     inkscape:cy="8"
     inkscape:current-layer="layer1"
     showgrid="true"
     inkscape:grid-bbox="true"
     inkscape:document-units="px"
     inkscape:window-width="1280"
     inkscape:window-height="659"
     inkscape:window-x="-8"
     inkscape:window-y="-8"
     inkscape:window-maximized="1" />
  <metadata
     id="metadata3110">
    <rdf:RDF>
      <cc:Work
         rdf:about="">
        <dc:format>image/svg+xml</dc:format>
        <dc:type
           rdf:resource="http://purl.org/dc/dcmitype/StillImage" />
        <dc:title></dc:title>
      </cc:Work>
    </rdf:RDF>
  </metadata>
  <g
     id="layer1"
     inkscape:label="Layer 1"
     inkscape:groupmode="layer">
    <g
       id="g3148"
       transform="matrix(1.356462,0,0,1.4219171,-774.14131,-622.98161)">
      <path
         style="fill:#000000;fill-rule:nonzero"
         inkscape:connector-curvature="0"
         id="path3652"
         d="m 575.35884,440.90878 c 0.56484,-0.002 1.02126,-0.45822 1.02095,-1.02095 3.1e-4,-0.56333 -0.45611,-1.01984 -1.02095,-1.02094 -0.56132,10e-4 -1.01778,0.45761 -1.01592,1.02094 -0.002,0.56273 0.4546,1.01919 1.01592,1.02095" />
      <path
         style="fill:#000000;fill-rule:nonzero"
         inkscape:connector-curvature="0"
         id="path3654"
         d="m 574.58433,442.14599 c -0.18169,-1.17223 1.51046,-1.5285 1.7854,-0.3269 l 0.45767,2.29839 1.72002,0 c 0.50293,0.002 0.76405,0.40332 0.76445,0.77451 l 0,3.12319 c -4e-4,0.7609 -1.08093,0.75733 -1.0813,-0.0101 3.7e-4,-0.71449 0,-2.43418 0,-2.43418 l -2.1978,0 c -0.51075,8.3e-4 -0.83212,-0.35069 -0.91031,-0.75439 l -0.53813,-2.67056" />
      <path
         style="fill:#000000;fill-rule:nonzero"
         inkscape:connector-curvature="0"
         id="path3656"
         d="m 577.42588,445.77714 c 0.57026,-6e-5 0.5676,0.84408 0.005,0.84493 l -1.57417,0 c -0.76781,-8.5e-4 -1.53268,-0.57712 -1.73511,-1.46856 l -0.48784,-2.38892 c -0.10086,-0.54155 0.6798,-0.7221 0.79463,-0.16596 l 0.46772,2.2833 c 0.12929,0.58381 0.56114,0.89515 1.0813,0.89521 l 1.44844,0" />
    </g>
  </g>
</svg>
